<!--?xml version="1.0" encoding="utf-8"?-->
<!-- Generator: Adobe Illustrator 15.1.0, SVG Export Plug-In . SVG Version: 6.00 Build 0)  -->

<svg version="1.1" id="_x32_" xmlns="http://www.w3.org/2000/svg" xmlns:xlink="http://www.w3.org/1999/xlink" x="0px" y="0px" width="512px" height="512px" viewBox="0 0 512 512" style="width: 32px; height: 32px; opacity: 1;" xml:space="preserve">
<style type="text/css">

	.st0{fill:#4B4B4B;}

</style>
<g>
	<path class="st0" d="M256.016,0C114.625,0,0,114.625,0,256s114.625,256,256.016,256C397.375,512,512,397.375,512,256
		S397.375,0,256.016,0z M256.016,450.031c-106.984,0-194.047-87.063-194.047-194.031c0-37.766,11.031-72.953,29.797-102.781H420.25
		C439,183.047,450,218.234,450,256C450,362.969,362.969,450.031,256.016,450.031z" style="fill: rgb(184, 221, 24);"></path>
	<path class="st0" d="M164.094,214.547c-19,0-34.406,15.422-34.406,34.406c0,19.047,15.406,34.453,34.406,34.453
		c19.031,0,34.438-15.406,34.438-34.453C198.531,229.969,183.125,214.547,164.094,214.547z" style="fill: rgb(184, 221, 24);"></path>
	<path class="st0" d="M350.313,214.547c-19.031,0-34.469,15.422-34.469,34.406c0,19.047,15.438,34.453,34.469,34.453
		c19,0,34.406-15.406,34.406-34.453C384.719,229.969,369.313,214.547,350.313,214.547z" style="fill: rgb(184, 221, 24);"></path>
	<rect x="188.875" y="342.594" class="st0" width="139.875" height="32.313" style="fill: rgb(184, 221, 24);"></rect>
</g>
</svg>
